<svg id="visual" viewBox="0 0 1400 700" width="1400" height="700" xmlns="http://www.w3.org/2000/svg" xmlns:xlink="http://www.w3.org/1999/xlink" version="1.1"><rect x="0" y="0" width="1400" height="700" fill="#002233"></rect><path d="M0 593L33.3 588.3C66.7 583.7 133.3 574.3 200 568.2C266.7 562 333.3 559 400 537.7C466.7 516.3 533.3 476.7 600 482C666.7 487.3 733.3 537.7 800 556.7C866.7 575.7 933.3 563.3 1000 552.8C1066.7 542.3 1133.3 533.7 1200 518.3C1266.7 503 1333.3 481 1366.7 470L1400 459L1400 701L1366.7 701C1333.3 701 1266.7 701 1200 701C1133.3 701 1066.7 701 1000 701C933.3 701 866.7 701 800 701C733.3 701 666.7 701 600 701C533.3 701 466.7 701 400 701C333.3 701 266.7 701 200 701C133.3 701 66.7 701 33.3 701L0 701Z" fill="#0066FF" stroke-linecap="round" stroke-linejoin="miter"></path></svg>